<svg width="18" height="18" viewBox="0 0 18 18" fill="none" xmlns="http://www.w3.org/2000/svg">
<path d="M0 3.61924C0 2.54509 0.392777 1.67535 1.17833 1.01002C1.96388 0.336673 2.99323 0 4.26637 0C5.55756 0 6.59594 0.332665 7.38149 0.997996C8.16704 1.65531 8.55982 2.5491 8.55982 3.67936V4.54509C8.55982 5.62725 8.16704 6.49699 7.38149 7.15431C6.59594 7.81162 5.56659 8.14028 4.29345 8.14028C3.01129 8.14028 1.97291 7.81162 1.17833 7.15431C0.392777 6.48898 0 5.59519 0 4.47295V3.61924ZM2.60045 4.54509C2.60045 5.02605 2.75395 5.41483 3.06095 5.71142C3.37698 6 3.78781 6.14429 4.29345 6.14429C4.7991 6.14429 5.2009 5.99599 5.49887 5.6994C5.79684 5.40281 5.94582 5.00601 5.94582 4.50902V3.61924C5.94582 3.13828 5.79684 2.7495 5.49887 2.45291C5.2009 2.15631 4.79007 2.00802 4.26637 2.00802C3.76975 2.00802 3.36795 2.15631 3.06095 2.45291C2.75395 2.74148 2.60045 3.14629 2.60045 3.66733V4.54509ZM9.42664 13.4669C9.42664 12.3848 9.82393 11.515 10.6185 10.8577C11.4131 10.1924 12.4424 9.85972 13.7065 9.85972C14.9887 9.85972 16.0226 10.1884 16.8081 10.8457C17.6027 11.495 18 12.3928 18 13.5391V14.4048C18 15.479 17.6117 16.3487 16.8352 17.014C16.0587 17.6713 15.0248 18 13.7336 18C12.4334 18 11.3905 17.6673 10.605 17.002C9.81941 16.3367 9.42664 15.4549 9.42664 14.3567V13.4669ZM12.0271 14.4048C12.0271 14.8457 12.1896 15.2224 12.5147 15.5351C12.8397 15.8477 13.246 16.004 13.7336 16.004C14.8352 16.004 15.386 15.4629 15.386 14.3808V13.4669C15.386 12.986 15.2325 12.6012 14.9255 12.3126C14.6185 12.016 14.2122 11.8677 13.7065 11.8677C13.2009 11.8677 12.7946 12.016 12.4876 12.3126C12.1806 12.6012 12.0271 12.998 12.0271 13.503V14.4048ZM5.06546 16.4489L3.15576 15.5351L12.7856 1.8517L14.6953 2.76553L5.06546 16.4489Z" fill="#8D8D8D"/>
</svg>
